<?xml version="1.0" standalone="no"?>
<!DOCTYPE svg PUBLIC "-//W3C//DTD SVG 20010904//EN"
 "http://www.w3.org/TR/2001/REC-SVG-20010904/DTD/svg10.dtd">
<svg version="1.0" xmlns="http://www.w3.org/2000/svg"
 width="500.000000pt" height="500.000000pt" viewBox="0 0 500.000000 500.000000"
 preserveAspectRatio="xMidYMid meet">
<metadata>
Created by potrace 1.14, written by Peter Selinger 2001-2017
</metadata>
<g transform="translate(0.000000,500.000000) scale(0.100000,-0.100000)"
fill="#000000" stroke="none">
<path d="M1710 4100 c-33 -33 -76 -136 -97 -231 -19 -92 -24 -341 -7 -413 l10
-40 78 79 c73 75 77 81 71 114 -8 42 -8 132 0 186 11 76 26 145 32 145 15 0
84 -59 149 -126 l72 -74 75 35 c42 19 80 35 86 35 47 0 -10 69 -146 176 -91
72 -194 124 -258 131 -35 4 -47 1 -65 -17z"/>
<path d="M3190 4113 c-97 -35 -223 -121 -338 -231 -52 -50 -59 -72 -23 -72 10
0 21 -3 24 -7 4 -4 35 -18 70 -33 l62 -26 66 66 c85 87 150 135 160 118 24
-38 41 -241 28 -315 l-8 -41 77 -76 c72 -70 77 -74 86 -53 14 37 19 296 7 374
-29 188 -91 304 -162 302 -19 0 -41 -3 -49 -6z"/>
<path d="M2390 3793 c-128 -20 -252 -63 -370 -126 -199 -108 -426 -341 -531
-548 -41 -81 -81 -189 -69 -189 6 0 36 13 68 29 101 51 212 75 134 29 -40 -24
-169 -154 -200 -202 -78 -120 -113 -267 -107 -446 2 -63 7 -131 10 -150 4 -19
8 -39 8 -45 1 -5 -25 -15 -57 -21 -33 -7 -70 -17 -83 -23 -13 -6 -27 -11 -32
-11 -10 0 -102 143 -128 200 -76 166 -81 338 -12 472 26 51 35 60 74 76 44 18
100 73 126 123 35 70 31 135 -18 249 -22 52 -48 118 -57 147 -36 110 -95 163
-176 159 -75 -3 -108 -44 -80 -97 14 -25 56 -25 70 0 10 19 44 21 61 4 9 -9
79 -176 111 -263 11 -30 20 -72 20 -93 -2 -109 -133 -169 -229 -104 -33 22
-50 52 -88 152 -12 33 -32 82 -44 109 -13 27 -25 64 -28 82 -7 41 11 68 36 55
45 -24 91 41 56 79 -23 25 -46 25 -96 0 -48 -25 -79 -72 -79 -123 0 -42 95
-305 135 -374 15 -24 42 -54 61 -65 19 -11 34 -21 34 -23 0 -2 -11 -25 -24
-52 -31 -62 -57 -190 -55 -267 5 -145 71 -332 167 -474 l41 -60 -21 -18 c-86
-78 -142 -266 -117 -399 61 -334 441 -503 712 -316 55 38 136 126 153 168 l14
32 99 -98 c88 -86 160 -151 291 -259 57 -47 179 -132 190 -132 6 0 10 -4 10
-9 0 -5 29 -23 64 -41 l64 -31 53 25 c88 41 343 227 474 345 154 138 299 290
382 399 24 31 47 62 51 67 80 100 167 269 199 388 36 134 41 324 12 444 -32
134 -78 219 -168 311 -42 42 -94 92 -116 109 l-40 32 55 -15 c30 -8 86 -30
123 -48 l68 -33 -7 31 c-12 57 -91 214 -154 305 -57 83 -210 245 -285 302 -16
13 -32 26 -35 29 -11 11 -88 57 -156 93 -71 36 -219 90 -284 102 -42 8 -245
14 -280 8z m-219 -645 c9 -16 7 -24 -9 -41 -23 -22 -45 -18 -62 12 -8 17 -7
24 10 41 22 22 45 18 61 -12z m715 -26 c-8 -24 -45 -36 -63 -20 -21 17 -16 58
10 67 29 12 62 -17 53 -47z m-223 -135 c32 -14 70 -35 84 -46 21 -17 35 -20
82 -15 80 8 188 -18 297 -71 76 -37 109 -62 181 -133 93 -92 139 -164 167
-262 18 -63 30 -150 22 -150 -3 0 -27 15 -53 34 -42 29 -69 42 -108 52 -5 2
-21 6 -35 9 -43 12 -185 15 -200 4 -13 -8 -11 -13 12 -29 39 -30 95 -119 109
-174 14 -55 8 -64 -25 -43 -48 32 -166 40 -267 18 -114 -24 -295 -161 -389
-294 l-34 -48 -20 25 c-12 13 -36 42 -54 65 -103 126 -237 221 -350 250 -90
23 -208 19 -263 -10 -23 -11 -43 -19 -45 -16 -2 2 5 33 16 69 20 64 29 79 95
149 33 35 34 37 13 42 -38 10 -181 -1 -238 -18 -30 -10 -76 -33 -102 -52 -27
-19 -48 -31 -49 -26 -8 65 43 223 98 301 95 134 198 214 361 277 75 29 94 32
175 30 87 -2 94 0 134 28 70 49 136 67 238 64 72 -2 101 -8 148 -30z m-1167
-1032 c61 -30 113 -84 150 -157 23 -45 28 -66 28 -138 1 -75 -2 -92 -28 -143
-33 -65 -98 -130 -154 -155 -25 -11 -68 -16 -132 -16 -80 0 -103 3 -143 23
-62 30 -110 81 -149 159 -38 77 -43 167 -13 250 21 57 73 125 81 105 3 -6 22
-36 43 -65 23 -33 40 -71 44 -97 6 -50 21 -69 65 -88 27 -11 37 -11 66 1 83
34 93 137 18 181 -23 14 -122 142 -122 159 0 8 52 13 124 10 49 -2 84 -10 122
-29z m932 -204 c17 -12 41 -37 53 -57 l22 -36 19 34 c29 50 80 81 143 86 69 6
115 -10 155 -54 75 -83 65 -216 -25 -317 -32 -36 -229 -194 -267 -213 -27 -14
-31 -13 -86 25 -32 21 -64 46 -71 55 -7 9 -17 16 -21 16 -5 0 -25 15 -46 33
-145 124 -191 219 -158 326 29 94 88 134 190 128 43 -3 71 -11 92 -26z"/>
<path d="M2435 2920 c-43 -14 -54 -34 -44 -78 7 -34 29 -60 67 -81 23 -13 6
-63 -31 -88 -57 -39 -86 -32 -136 37 -16 21 -21 22 -35 11 -49 -41 28 -131
112 -131 35 0 93 23 116 46 15 15 18 15 34 1 24 -22 86 -47 114 -47 52 0 99
21 118 53 24 39 26 73 4 81 -21 8 -40 -8 -48 -38 -11 -43 -82 -48 -125 -8 -30
27 -52 82 -34 82 16 0 49 33 65 64 20 39 7 81 -30 93 -37 13 -111 14 -147 3z"/>
<path d="M3943 3413 c-9 -3 -13 -33 -13 -99 l0 -94 -89 0 c-63 0 -92 -4 -100
-14 -15 -18 -12 -162 3 -175 6 -5 40 -9 76 -9 122 1 110 11 110 -96 0 -109 -3
-106 106 -106 89 0 91 3 88 121 -2 67 0 79 14 80 10 1 49 2 89 2 40 1 77 7 83
13 7 7 10 44 8 95 l-3 84 -95 5 -95 5 0 88 c0 67 -4 90 -15 97 -15 10 -145 12
-167 3z"/>
<path d="M3983 2395 c-35 -37 -39 -55 -47 -186 -8 -127 -41 -242 -104 -368
-23 -45 -127 -166 -191 -222 -29 -26 -99 -69 -155 -97 -85 -42 -108 -59 -131
-94 -16 -24 -53 -69 -83 -100 -30 -32 -53 -58 -51 -58 21 0 168 48 242 79 118
50 160 74 258 151 227 179 352 435 364 750 3 76 -5 103 -43 147 l-27 33 -32
-35z"/>
</g>
</svg>
